<?xml version="1.0" standalone="no"?>
<!DOCTYPE svg PUBLIC "-//W3C//DTD SVG 1.1//EN" "http://www.w3.org/Graphics/SVG/1.1/DTD/svg11.dtd">
<svg width="100%" height="100%" viewBox="0 0 2048 2048" version="1.1" xmlns="http://www.w3.org/2000/svg" xmlns:xlink="http://www.w3.org/1999/xlink" xml:space="preserve" style="fill-rule:evenodd;clip-rule:evenodd;stroke-linejoin:round;stroke-miterlimit:1.41421;">
    <g id="Layer1">
        <path d="M952.84,373.413L548.556,373.413L548.556,1466.62L952.84,1466.62C1254.72,1466.62 1499.44,1221.9 1499.44,920.017C1499.44,618.137 1254.72,373.414 952.84,373.413ZM952.84,88.4172C1412.12,88.4183 1784.44,460.738 1784.44,920.017C1784.44,1379.3 1412.12,1751.62 952.84,1751.62L406.058,1751.62C327.359,1751.62 263.561,1687.82 263.56,1609.12L263.56,230.915L263.563,229.994C264.058,151.719 327.665,88.4182 406.058,88.4172L952.84,88.4172Z" style="fill:black;"/>
        <path d="M735.091,1959.58L617.734,1522.65L341.638,1736.26L735.091,1959.58Z" style="fill:black;"/>
        <clipPath id="tag1">
            <path d="M951.315,1487.75C758.474,1505.8 541.881,1571.76 414.776,1457.25L414.776,382.782L952.011,382.782C1248.72,382.782 1489.25,623.311 1489.25,920.017C1489.25,1039.22 1450.42,1149.36 1384.73,1238.47C1382.69,1241.25 1423.91,1226.63 1421.61,1230.43C1338.07,1368.44 1125.11,1487.75 951.315,1487.75Z"/>
        </clipPath>
        <g clip-path="url(#tag1)">
            <path d="M2080.55,978.377L563.064,2039.59L608.46,2104.51L2125.95,1043.29L2080.55,978.377ZM2029.43,905.269L511.937,1966.48L557.333,2031.4L2074.82,970.182L2029.43,905.269ZM1978.3,832.16L460.811,1893.38L506.206,1958.29L2023.69,897.074L1978.3,832.16ZM1927.17,759.051L409.684,1820.27L455.08,1885.18L1972.57,823.965L1927.17,759.051ZM1876.05,685.942L358.557,1747.16L403.953,1812.07L1921.44,750.856L1876.05,685.942ZM1824.92,612.833L307.43,1674.05L352.826,1738.96L1870.31,677.747L1824.92,612.833ZM1773.79,539.724L256.304,1600.94L301.699,1665.85L1819.19,604.638L1773.79,539.724ZM1722.67,466.616L205.177,1527.83L250.573,1592.75L1768.06,531.53L1722.67,466.616ZM1671.54,393.507L154.05,1454.72L199.446,1519.64L1716.93,458.421L1671.54,393.507ZM1620.41,320.398L102.923,1381.61L148.319,1446.53L1665.81,385.312L1620.41,320.398ZM1569.28,247.289L51.7967,1308.5L97.1925,1373.42L1614.68,312.203L1569.28,247.289ZM1518.16,174.18L0.669986,1235.4L46.0658,1300.31L1563.55,239.094L1518.16,174.18ZM1467.03,101.072L-50.4567,1162.29L-5.06092,1227.2L1512.43,165.986L1467.03,101.072ZM1415.9,27.9629L-101.583,1089.18L-56.1876,1154.09L1461.3,92.8767L1415.9,27.9629ZM1364.78,-45.1459L-152.71,1016.07L-107.314,1080.98L1410.17,19.7679L1364.78,-45.1459ZM1313.65,-118.255L-203.837,942.961L-158.441,1007.87L1359.05,-53.3409L1313.65,-118.255ZM1262.52,-191.364L-254.964,869.852L-209.568,934.766L1307.92,-126.45L1262.52,-191.364ZM1211.4,-264.472L-306.09,796.743L-260.695,861.657L1256.79,-199.558L1211.4,-264.472Z" style="fill:black;"/>
        </g>
    </g>
</svg>
