<?xml version="1.0" standalone="no"?>
<!DOCTYPE svg PUBLIC "-//W3C//DTD SVG 1.1//EN" "http://www.w3.org/Graphics/SVG/1.1/DTD/svg11.dtd">
<svg width="100%" height="100%" viewBox="0 0 2048 2048" version="1.1" xmlns="http://www.w3.org/2000/svg" xmlns:xlink="http://www.w3.org/1999/xlink" xml:space="preserve" style="fill-rule:evenodd;clip-rule:evenodd;stroke-linejoin:round;stroke-miterlimit:1.41421;">
    <path d="M1024,69.063C1551.4,69.063 1978.94,496.603 1978.94,1024C1978.94,1551.4 1551.4,1978.94 1024,1978.94C496.603,1978.94 69.063,1551.4 69.063,1024C69.063,496.603 496.603,69.063 1024,69.063ZM1024,138.806C1512.88,138.806 1909.19,535.121 1909.19,1024C1909.19,1512.88 1512.88,1909.19 1024,1909.19C535.121,1909.19 138.806,1512.88 138.806,1024C138.806,535.121 535.121,138.806 1024,138.806ZM995.722,1635.98L995.722,1760.98C995.722,1777.45 982.793,1790.8 966.844,1790.8C950.894,1790.8 937.965,1777.45 937.965,1760.98L937.965,1635.98L995.722,1635.98ZM1138.01,1624.92L1138.01,1760.98C1138.01,1777.45 1125.08,1790.8 1109.13,1790.8C1093.18,1790.8 1080.25,1777.45 1080.25,1760.98L1080.25,1633.24C1099.79,1631.38 1119.06,1628.59 1138.01,1624.92ZM863.788,1752.25L577.444,1589.72C543.726,1572.6 520.621,1537.59 520.621,1497.19L520.621,494.174L520.623,493.504C520.982,436.76 566.914,390.829 623.659,390.471L624.327,390.468L1022.26,390.468C1356.51,390.469 1627.47,661.433 1627.47,995.683C1627.47,1329.93 1356.51,1600.9 1022.26,1600.9L823.136,1600.9L863.788,1752.25ZM728.033,597.88L728.033,1393.49L1022.26,1393.49C1241.96,1393.48 1420.06,1215.38 1420.06,995.683C1420.06,775.983 1241.96,597.881 1022.26,597.88L728.033,597.88ZM937.965,1358.4L937.965,632.963L995.722,632.963L995.722,1358.4L937.965,1358.4ZM1080.25,1354.2L1080.25,637.161C1100.01,640.047 1119.3,644.386 1138.01,650.066L1138.01,1341.3C1119.3,1346.98 1100.01,1351.32 1080.25,1354.2ZM1138.01,366.443C1119.06,362.772 1099.79,359.986 1080.25,358.128L1080.25,283.502C1080.25,268.976 1093.18,257.2 1109.13,257.2C1125.08,257.2 1138.01,268.976 1138.01,283.502L1138.01,366.443ZM995.722,355.386L937.965,355.386L937.965,283.502C937.965,268.976 950.894,257.2 966.844,257.2C982.793,257.2 995.722,268.976 995.722,283.502L995.722,355.386Z" style="fill:url(#tag1);"/>
    <defs>
        <linearGradient id="tag1" x1="0" y1="0" x2="1" y2="0" gradientUnits="userSpaceOnUse" gradientTransform="matrix(1490.86,1490.86,-1490.86,1490.86,287.266,287.266)"><stop offset="0%" style="stop-color:rgb(255,209,37);stop-opacity:1"/><stop offset="100%" style="stop-color:rgb(255,175,0);stop-opacity:1"/></linearGradient>
    </defs>
</svg>
