<?xml version="1.0" standalone="no"?>
<!DOCTYPE svg PUBLIC "-//W3C//DTD SVG 1.1//EN" "http://www.w3.org/Graphics/SVG/1.1/DTD/svg11.dtd">
<svg width="100%" height="100%" viewBox="0 0 2048 2048" version="1.1" xmlns="http://www.w3.org/2000/svg" xmlns:xlink="http://www.w3.org/1999/xlink" xml:space="preserve" style="fill-rule:evenodd;clip-rule:evenodd;stroke-linejoin:round;stroke-miterlimit:1.41421;">
    <g id="Layer1">
        <path d="M952.84,373.413L548.556,373.413L548.556,1466.62L952.84,1466.62C1254.72,1466.62 1499.44,1221.9 1499.44,920.017C1499.44,618.137 1254.72,373.414 952.84,373.413ZM952.84,88.4172C1412.12,88.4183 1784.44,460.738 1784.44,920.017C1784.44,1379.3 1412.12,1751.62 952.84,1751.62L406.058,1751.62C327.359,1751.62 263.561,1687.82 263.56,1609.12L263.56,230.915L263.563,229.994C264.058,151.719 327.665,88.4182 406.058,88.4172L952.84,88.4172Z" style="fill:black;"/>
        <path d="M735.091,1959.58L617.734,1522.65L341.638,1736.26L735.091,1959.58Z" style="fill:black;"/>
    </g>
</svg>
